<svg xmlns="http://www.w3.org/2000/svg" width="48" height="48" viewBox="0 0 48 48"><path d="M36.5 20.4 L42.5 24.0 L36.5 27.6 Z" fill="#e6c14a" stroke="#1a1a1a" stroke-width="1"/><path d="M36.2 28.4 L39.0 34.9 L32.0 34.3 Z" fill="#e6c14a" stroke="#1a1a1a" stroke-width="1"/><path d="M31.3 34.8 L29.7 41.6 L24.4 37.0 Z" fill="#e6c14a" stroke="#1a1a1a" stroke-width="1"/><path d="M23.6 37.0 L18.3 41.6 L16.7 34.8 Z" fill="#e6c14a" stroke="#1a1a1a" stroke-width="1"/><path d="M16.0 34.3 L9.0 34.9 L11.8 28.4 Z" fill="#e6c14a" stroke="#1a1a1a" stroke-width="1"/><path d="M11.5 27.6 L5.5 24.0 L11.5 20.4 Z" fill="#e6c14a" stroke="#1a1a1a" stroke-width="1"/><path d="M11.8 19.6 L9.0 13.1 L16.0 13.7 Z" fill="#e6c14a" stroke="#1a1a1a" stroke-width="1"/><path d="M16.7 13.2 L18.3 6.4 L23.6 11.0 Z" fill="#e6c14a" stroke="#1a1a1a" stroke-width="1"/><path d="M24.4 11.0 L29.7 6.4 L31.3 13.2 Z" fill="#e6c14a" stroke="#1a1a1a" stroke-width="1"/><path d="M32.0 13.7 L39.0 13.1 L36.2 19.6 Z" fill="#e6c14a" stroke="#1a1a1a" stroke-width="1"/><circle cx="24" cy="24" r="13" fill="#e6c14a" stroke="#1a1a1a" stroke-width="1.5"/><circle cx="19" cy="22" r="2" fill="#1a1a1a"/><path d="M17 30 Q22 32 26 29" fill="none" stroke="#1a1a1a" stroke-width="1.4" stroke-linecap="round"/></svg>