<?xml version="1.0" encoding="UTF-8" standalone="no"?>
<svg xmlns="http://www.w3.org/2000/svg" width="48" height="48" viewBox="0 0 48 48">
  <!-- AngelLevel executable: beveled cog -->
  <g fill="#9a9a9a" stroke="#1a1a1a" stroke-width="1.2">
    <rect x="22" y="4" width="4" height="8" transform="rotate(0 24 24)"/>
    <rect x="22" y="4" width="4" height="8" transform="rotate(45 24 24)"/>
    <rect x="22" y="4" width="4" height="8" transform="rotate(90 24 24)"/>
    <rect x="22" y="4" width="4" height="8" transform="rotate(135 24 24)"/>
    <rect x="22" y="4" width="4" height="8" transform="rotate(180 24 24)"/>
    <rect x="22" y="4" width="4" height="8" transform="rotate(225 24 24)"/>
    <rect x="22" y="4" width="4" height="8" transform="rotate(270 24 24)"/>
    <rect x="22" y="4" width="4" height="8" transform="rotate(315 24 24)"/>
  </g>
  <circle cx="24" cy="24" r="12" fill="#b0b0b0" stroke="#1a1a1a" stroke-width="1.6"/>
  <path d="M24 13 A11 11 0 0 0 13.5 21" fill="none" stroke="#ffffff" stroke-width="1.1"/>
  <circle cx="24" cy="24" r="4.5" fill="#6e6e6e" stroke="#1a1a1a" stroke-width="1.2"/>
</svg>
