<?xml version="1.0" encoding="UTF-8" standalone="no"?>
<svg xmlns="http://www.w3.org/2000/svg" width="48" height="48" viewBox="0 0 48 48">
  <!-- SquirrelLevel System Settings: beveled control sliders -->
  <g stroke="#cdd1d7" stroke-width="1.4">
    <!-- tracks -->
    <rect x="7" y="13" width="34" height="3.5" rx="1.5" fill="#8f8f8f"/>
    <rect x="7" y="23" width="34" height="3.5" rx="1.5" fill="#8f8f8f"/>
    <rect x="7" y="33" width="34" height="3.5" rx="1.5" fill="#8f8f8f"/>
  </g>
  <!-- knobs, raised bevel -->
  <g>
    <g transform="translate(27,10)">
      <rect width="7" height="10" fill="#9cafc4" stroke="#cdd1d7" stroke-width="1.4"/>
      <path d="M1 1 H6 M1 1 V9" fill="none" stroke="#ffffff" stroke-width="1"/>
      <path d="M6 1 V9 M1 9 H6" fill="none" stroke="#5d6975" stroke-width="1"/>
    </g>
    <g transform="translate(13,20)">
      <rect width="7" height="10" fill="#9cafc4" stroke="#cdd1d7" stroke-width="1.4"/>
      <path d="M1 1 H6 M1 1 V9" fill="none" stroke="#ffffff" stroke-width="1"/>
      <path d="M6 1 V9 M1 9 H6" fill="none" stroke="#5d6975" stroke-width="1"/>
    </g>
    <g transform="translate(32,30)">
      <rect width="7" height="10" fill="#9cafc4" stroke="#cdd1d7" stroke-width="1.4"/>
      <path d="M1 1 H6 M1 1 V9" fill="none" stroke="#ffffff" stroke-width="1"/>
      <path d="M6 1 V9 M1 9 H6" fill="none" stroke="#5d6975" stroke-width="1"/>
    </g>
  </g>
</svg>
