<?xml version="1.0" encoding="UTF-8" standalone="no"?>
<svg xmlns="http://www.w3.org/2000/svg" version="1.1" width="160" height="16">
  <!-- NeXT square button, raised bevel; glyph = keepabove. States laid out in a row. -->

  <g id="keepabove" transform="translate(0,0)">
    <rect x="0" y="0" width="18" height="16" fill="#000000" fill-opacity="0"/>
    <rect x="0" y="0" width="18" height="16" fill="#cfd3d9"/>
    <rect x="1" y="1" width="16" height="14" fill="#3b4048"/>
    <rect x="1" y="1" width="16" height="1"  fill="#565d67"/>
    <rect x="1" y="1" width="1"  height="14" fill="#565d67"/>
    <rect x="1" y="14" width="16" height="1" fill="#14161a"/>
    <rect x="16" y="1" width="1" height="14" fill="#14161a"/>
    <path d="M4 4 L14 4 M9 13 L9 7 M5 11 L9 7 L13 11" stroke="#000000" stroke-width="2" stroke-linecap="round" stroke-linejoin="round" fill="none"/>
  </g>

  <g id="active" transform="translate(22,0)">
    <rect x="0" y="0" width="18" height="16" fill="#000000" fill-opacity="0"/>
    <rect x="0" y="0" width="18" height="16" fill="#cfd3d9"/>
    <rect x="1" y="1" width="16" height="14" fill="#3b4048"/>
    <rect x="1" y="1" width="16" height="1"  fill="#565d67"/>
    <rect x="1" y="1" width="1"  height="14" fill="#565d67"/>
    <rect x="1" y="14" width="16" height="1" fill="#14161a"/>
    <rect x="16" y="1" width="1" height="14" fill="#14161a"/>
    <path d="M4 4 L14 4 M9 13 L9 7 M5 11 L9 7 L13 11" stroke="#000000" stroke-width="2" stroke-linecap="round" stroke-linejoin="round" fill="none"/>
  </g>

  <g id="hover" transform="translate(44,0)">
    <rect x="0" y="0" width="18" height="16" fill="#000000" fill-opacity="0"/>
    <rect x="0" y="0" width="18" height="16" fill="#cfd3d9"/>
    <rect x="1" y="1" width="16" height="14" fill="#454b54"/>
    <rect x="1" y="1" width="16" height="1"  fill="#565d67"/>
    <rect x="1" y="1" width="1"  height="14" fill="#565d67"/>
    <rect x="1" y="14" width="16" height="1" fill="#14161a"/>
    <rect x="16" y="1" width="1" height="14" fill="#14161a"/>
    <path d="M4 4 L14 4 M9 13 L9 7 M5 11 L9 7 L13 11" stroke="#000000" stroke-width="2" stroke-linecap="round" stroke-linejoin="round" fill="none"/>
  </g>

  <g id="pressed" transform="translate(66,0)">
    <rect x="0" y="0" width="18" height="16" fill="#000000" fill-opacity="0"/>
    <rect x="0" y="0" width="18" height="16" fill="#cfd3d9"/>
    <rect x="1" y="1" width="16" height="14" fill="#2c3138"/>
    <rect x="1" y="1" width="16" height="1"  fill="#14161a"/>
    <rect x="1" y="1" width="1"  height="14" fill="#14161a"/>
    <rect x="1" y="14" width="16" height="1" fill="#565d67"/>
    <rect x="16" y="1" width="1" height="14" fill="#565d67"/>
    <path d="M5 5 L15 5 M10 14 L10 8 M6 12 L10 8 L14 12" stroke="#000000" stroke-width="2" stroke-linecap="round" stroke-linejoin="round" fill="none"/>
  </g>

  <g id="inactive" transform="translate(88,0)">
    <rect x="0" y="0" width="18" height="16" fill="#000000" fill-opacity="0"/>
    <rect x="0" y="0" width="18" height="16" fill="#2a2a2a"/>
    <rect x="1" y="1" width="16" height="14" fill="#a8a8a8"/>
    <rect x="1" y="1" width="16" height="1"  fill="#e6e6e6"/>
    <rect x="1" y="1" width="1"  height="14" fill="#e6e6e6"/>
    <rect x="1" y="14" width="16" height="1" fill="#8a8a8a"/>
    <rect x="16" y="1" width="1" height="14" fill="#8a8a8a"/>
    <path d="M4 4 L14 4 M9 13 L9 7 M5 11 L9 7 L13 11" stroke="#555555" stroke-width="2" stroke-linecap="round" stroke-linejoin="round" fill="none"/>
  </g>

  <g id="deactivated" transform="translate(110,0)">
    <rect x="0" y="0" width="18" height="16" fill="#000000" fill-opacity="0"/>
    <rect x="0" y="0" width="18" height="16" fill="#2a2a2a"/>
    <rect x="1" y="1" width="16" height="14" fill="#a8a8a8"/>
    <rect x="1" y="1" width="16" height="1"  fill="#e6e6e6"/>
    <rect x="1" y="1" width="1"  height="14" fill="#e6e6e6"/>
    <rect x="1" y="14" width="16" height="1" fill="#8a8a8a"/>
    <rect x="16" y="1" width="1" height="14" fill="#8a8a8a"/>
    <path d="M4 4 L14 4 M9 13 L9 7 M5 11 L9 7 L13 11" stroke="#777777" stroke-width="2" stroke-linecap="round" stroke-linejoin="round" fill="none"/>
  </g>

</svg>
